<svg version="1.2" xmlns="http://www.w3.org/2000/svg" viewBox="0 0 300 161" width="300" height="161"><style></style><path  d="m10.4 41.3q-0.3-0.6-0.3-1.2-0.1-0.6 0.1-1.1 0.2-0.6 0.6-1 0.4-0.5 0.9-0.8c0.4-0.1 1.5-0.7 4.3-1.9q0.5-0.2 1.1-0.2 0.6 0 1.2 0.2 0.5 0.2 0.9 0.7 0.5 0.4 0.7 0.9 0.2 0.6 0.2 1.2 0.1 0.6-0.2 1.1-0.2 0.6-0.6 1-0.4 0.4-1 0.7c-2.5 1-3.9 1.7-3.9 1.7q-0.6 0.3-1.2 0.3-0.5 0.1-1.1-0.1-0.6-0.2-1-0.6-0.5-0.4-0.7-0.9z"/><path  d="m14.4 39.3q-0.2-0.6-0.2-1.2-0.1-0.6 0.2-1.1 0.2-0.6 0.6-1 0.4-0.4 1-0.7c1.5-0.6 3.3 0.1 3.9 1.6 0.7 1.5 0 3.3-1.6 4q-0.5 0.2-1.1 0.2-0.6 0-1.1-0.2-0.5-0.2-1-0.6-0.4-0.3-0.6-0.9-0.1 0-0.1-0.1zm8.4-3.2l-0.2-0.3c-0.3-0.7-0.2-1.5 0.1-2.2 0.3-0.8 1-1.3 1.7-1.6 3-1.1 5.7-2.1 8.4-2.9l0.1-0.1h0.2c1.5-0.5 3.1 0.4 3.6 1.9q0.2 0.5 0.2 1.1 0 0.5-0.3 1-0.2 0.5-0.5 0.9-0.4 0.4-0.9 0.6-0.2 0.1-0.4 0.2c-2.7 0.9-5.5 1.9-8.2 2.9h-0.1c-1.5 0.6-3.1-0.1-3.7-1.5zm17-5.6q-0.2-0.2-0.2-0.5-0.2-0.5-0.1-1.1 0-0.6 0.3-1.1 0.3-0.6 0.8-0.9 0.4-0.4 1-0.6c3.1-0.9 6-1.6 8.7-2.3 1.6-0.4 3.3 0.6 3.7 2.1 0.3 1.4-0.3 2.8-1.6 3.5q-0.3 0.1-0.6 0.2c-2.8 0.7-5.7 1.5-8.5 2.3-1.4 0.4-2.9-0.3-3.5-1.6zm17.3-4.3q-0.2-0.3-0.3-0.7c-0.2-1.4 0.4-2.7 1.6-3.3 0.3-0.1 0.5-0.2 0.8-0.3q4.4-0.9 8.8-1.7c1.6-0.3 3.2 0.9 3.5 2.5 0.2 1.3-0.4 2.5-1.6 3.1q-0.4 0.2-0.8 0.3c-2.9 0.5-5.8 1.1-8.7 1.7-1.3 0.3-2.7-0.4-3.3-1.6zm17.6-3.1q-0.3-0.5-0.3-1.1-0.1-0.6 0.1-1.2 0.2-0.5 0.6-1 0.4-0.4 1-0.7c0.2-0.1 0.5-0.2 0.7-0.2l0.2-0.1c0 0 0.1 0 0.1 0h0.1c3.1-0.4 5.9-0.8 8.6-1 0.1 0 0.1 0 0.2 0 1.5-0.2 3.1 1.1 3.3 2.6 0.1 1.3-0.6 2.5-1.7 3q-0.5 0.3-1.1 0.3c-2.8 0.3-5.8 0.7-8.7 1.1-1.3 0.2-2.5-0.5-3.1-1.7zm17.8-1.7q-0.3-0.5-0.3-1.2-0.1-0.4 0-0.8 0.2-0.5 0.4-0.9 0.2-0.3 0.5-0.6 0.4-0.3 0.8-0.5 0.5-0.3 1.1-0.3c3-0.2 6-0.3 9.1-0.4 1.6 0 3 1.4 3 3 0 1.1-0.6 2.2-1.7 2.7-0.3 0.2-0.8 0.3-1.3 0.3-2.8 0.1-5.7 0.2-8.8 0.3q-0.4 0.1-0.8 0-0.5-0.1-0.8-0.4-0.4-0.2-0.7-0.5-0.3-0.3-0.5-0.7zm17.8-0.3q0-0.1-0.1-0.3-0.1-0.2-0.1-0.4 0-0.1-0.1-0.3 0-0.2 0-0.4 0-0.4 0.2-0.8 0.1-0.4 0.3-0.7 0.2-0.4 0.5-0.6 0.3-0.3 0.7-0.5 0.3-0.2 0.7-0.3l-0.4-0.1 1.2 0.1c3 0.1 6.1 0.2 9 0.4 1.6 0.2 2.9 1.6 2.7 3.3 0 1-0.7 1.9-1.6 2.4-0.5 0.2-1 0.4-1.6 0.3-2.9-0.2-5.8-0.4-8.7-0.4h-0.1q-0.4 0-0.8-0.1-0.3-0.2-0.7-0.4-0.3-0.2-0.6-0.5-0.3-0.3-0.5-0.7zm17.8 1.3c-0.2-0.5-0.3-1.1-0.2-1.7 0.1-1 0.7-1.9 1.6-2.3 0.5-0.3 1.1-0.4 1.7-0.3 2.9 0.3 6 0.8 9 1.3 1.5 0.3 2.7 1.9 2.4 3.4q0 0.4-0.2 0.7-0.1 0.4-0.3 0.6-0.2 0.3-0.5 0.6-0.3 0.2-0.6 0.4c-0.6 0.2-1.2 0.3-1.8 0.2-2.9-0.5-5.8-0.9-8.7-1.2-1-0.2-1.9-0.8-2.4-1.7zm17.7 3q-0.2-0.2-0.2-0.5-0.1-0.2-0.1-0.5-0.1-0.2-0.1-0.5 0-0.2 0.1-0.5 0.1-0.3 0.2-0.6 0.2-0.3 0.4-0.6 0.2-0.3 0.5-0.5 0.2-0.2 0.5-0.3 1-0.5 2-0.3c2.9 0.7 5.8 1.4 8.6 2.1l0.3 0.1c1.5 0.5 2.4 2.1 2 3.7q-0.2 0.6-0.5 1-0.4 0.5-0.9 0.8-0.5 0.3-1.1 0.4-0.6 0-1.2-0.1c-2.8-0.8-5.6-1.5-8.5-2.1q-0.3-0.1-0.6-0.2-0.3-0.2-0.6-0.4-0.3-0.2-0.5-0.5-0.2-0.2-0.3-0.5zm17.2 4.7q-0.3-0.5-0.4-1.1 0-0.6 0.2-1.2 0.2-0.6 0.6-1 0.4-0.5 0.9-0.7c0.7-0.4 1.5-0.4 2.3-0.2q4.4 1.5 8.5 3.1c1.5 0.6 2.3 2.4 1.7 3.9-0.3 0.6-0.8 1.2-1.4 1.6-0.8 0.3-1.7 0.4-2.4 0.1-2.8-1.1-5.6-2.1-8.3-3q-0.3-0.1-0.5-0.2-0.3-0.2-0.5-0.4-0.2-0.2-0.4-0.4-0.2-0.2-0.3-0.5zm16.6 6.5c-0.4-0.9-0.5-1.8-0.1-2.6 0.3-0.6 0.8-1.2 1.4-1.5 0.8-0.4 1.8-0.4 2.6 0 2.8 1.3 5.6 2.6 8.2 3.9 1.4 0.8 2 2.7 1.2 4.1-0.2 0.6-0.7 1-1.3 1.3-0.8 0.4-1.9 0.4-2.7 0-2.5-1.3-5.1-2.6-7.8-3.8h-0.1c-0.6-0.3-1.1-0.8-1.4-1.4zm15.8 8.2c-0.4-1-0.4-2 0.1-2.9q0.1-0.2 0.2-0.4 0.2-0.1 0.3-0.3 0.2-0.1 0.4-0.2 0.1-0.2 0.3-0.3 0.4-0.1 0.7-0.2 0.4-0.1 0.8-0.1 0.4 0 0.7 0.1 0.4 0.1 0.7 0.3 1 0.6 2 1.2 0.9 0.6 1.9 1.1 1 0.6 1.9 1.3 1 0.6 1.9 1.2c1.3 0.9 1.7 2.8 0.9 4.2-0.3 0.4-0.7 0.8-1.2 1-0.9 0.5-2.1 0.4-3-0.2q-3.6-2.4-7.4-4.6-0.2-0.1-0.4-0.3-0.1-0.1-0.3-0.2-0.1-0.2-0.3-0.4-0.1-0.2-0.2-0.3zm14.9 9.7c-0.5-1-0.4-2.2 0.3-3.1 0.2-0.4 0.6-0.7 1-0.9 1.1-0.5 2.3-0.4 3.2 0.3 2.3 1.7 4.7 3.6 7 5.4q0.1 0 0.1 0.1l0.2 0.1v0.1c1.1 1 1.2 2.9 0.3 4q-0.4 0.5-1 0.8c-1.1 0.6-2.3 0.4-3.3-0.3-2.2-1.9-4.5-3.7-6.9-5.4-0.4-0.3-0.7-0.6-0.9-1.1zm13.8 11.3q-0.2-0.4-0.2-0.9-0.1-0.4 0-0.9 0-0.4 0.2-0.8 0.2-0.4 0.5-0.8c0.3-0.3 0.5-0.5 0.9-0.7 1.1-0.5 2.4-0.3 3.3 0.5 2.2 2 4.4 4.1 6.6 6.2 1.2 1.1 1.2 3.1 0.1 4.2q-0.4 0.4-0.8 0.6c-1.2 0.6-2.6 0.4-3.5-0.5-2.1-2.1-4.3-4.1-6.4-6q-0.1-0.1-0.2-0.2-0.1-0.1-0.2-0.3 0-0.1-0.1-0.2-0.1-0.1-0.2-0.2zm12.8 12.5q-0.3-0.6-0.3-1.2-0.1-0.5 0.1-1.1 0.2-0.6 0.6-1 0.3-0.5 0.9-0.7c1.2-0.7 2.6-0.4 3.5 0.6 2.1 2.2 4.1 4.5 6.1 6.7q0.4 0.5 0.5 1.1 0.2 0.5 0.2 1.1-0.1 0.6-0.3 1.1-0.3 0.6-0.8 1-0.3 0.2-0.6 0.4c-1.2 0.6-2.7 0.2-3.6-0.8-1.7-2-3.5-4-5.2-5.9l-0.7-0.6c-0.1-0.3-0.3-0.5-0.4-0.7zm11.6 13.5c-0.7-1.3-0.3-2.8 0.8-3.7q0.2-0.2 0.5-0.3c1.3-0.7 2.8-0.3 3.7 0.8 1.8 2.3 3.7 4.8 5.4 7.2 1 1.3 0.7 3.2-0.6 4.2-0.2 0.1-0.3 0.2-0.5 0.3-1.3 0.6-2.8 0.2-3.7-1-1.8-2.4-3.6-4.7-5.3-7q-0.2-0.2-0.3-0.5zm10.4 14.4c-0.6-1.3-0.2-3 1-3.8l0.4-0.2c1.3-0.7 3-0.2 3.8 1 1.7 2.5 3.3 5 4.9 7.6q0.3 0.5 0.4 1.1 0.1 0.5 0 1.1-0.1 0.6-0.5 1.1-0.3 0.5-0.8 0.8c-0.1 0.1-0.2 0.1-0.3 0.2-1.4 0.7-3 0.2-3.9-1.2-1.5-2.4-3.1-4.9-4.8-7.3 0-0.2-0.1-0.3-0.2-0.4zm9.5 15.1c-0.7-1.4-0.2-3.1 1.2-3.9l0.1-0.1c1.4-0.7 3.2-0.2 4 1.2q0.5 1 1.1 2 0.6 0.9 1.1 1.9 0.6 1 1.1 2 0.5 1 1.1 2c0.7 1.5 0.2 3.3-1.2 4l-0.1 0.1c-1.4 0.7-3.2 0.1-4-1.3-1.5-2.7-2.9-5.3-4.3-7.7zm8.5 15.8v-0.1c-0.8-1.4-0.2-3.2 1.3-4 0.7-0.3 1.5-0.4 2.3-0.2 0.8 0.3 1.4 0.8 1.7 1.5l0.1 0.1c0.3 0.6 0.4 1.2 0.3 1.8-0.1 0.5-0.3 1.1-0.7 1.5-0.4 0.5-0.9 0.8-1.5 1-0.6 0.1-1.2 0.1-1.7-0.1-0.8-0.2-1.4-0.8-1.8-1.5z"/><path  d="m278.9 141.2q-0.2-0.5-0.5-1-0.2-0.5-0.5-1-0.2-0.5-0.5-1-0.2-0.5-0.5-1c-0.3-0.8-0.4-1.6-0.1-2.3 0.2-0.8 0.8-1.4 1.5-1.8 0.7-0.3 1.5-0.4 2.3-0.1 0.7 0.2 1.3 0.8 1.7 1.5q1 2 2 4c0.4 0.8 0.4 1.6 0.2 2.3-0.3 0.8-0.8 1.4-1.6 1.8-0.7 0.3-1.5 0.4-2.3 0.1-0.7-0.2-1.3-0.8-1.7-1.5z"/><path  d="m260.8 132.4c-0.3-0.5-0.4-1.2-0.3-1.8 0.1-0.7 0.4-1.2 0.9-1.7 0.5-0.4 1.1-0.7 1.7-0.8 0.6-0.1 1.3 0.1 1.8 0.4l15.6 8.7 2.7-17.9c0.2-0.8 0.6-1.5 1.2-2 0.7-0.4 1.5-0.6 2.3-0.5 0.7 0.1 1.4 0.5 1.9 1.2 0.5 0.6 0.7 1.4 0.6 2.2l-4.1 26.5-23.1-13q-0.2-0.1-0.4-0.2-0.1-0.2-0.3-0.3-0.2-0.2-0.3-0.4-0.1-0.2-0.2-0.4z"/></svg>