<svg xmlns="http://www.w3.org/2000/svg" version="1.1" xmlns:xlink="http://www.w3.org/1999/xlink" width="512" height="512" x="0" y="0" viewBox="0 0 512 512" style="enable-background:new 0 0 512 512" xml:space="preserve" class=""><g><path d="M505.825 64.384c-.003-.031-.011-.061-.014-.092-1.553-14.793-14.08-26.362-29.259-26.362H93.03c-16.246 0-29.464 13.218-29.464 29.464v159.759a5.724 5.724 0 0 0 5.725 5.725 5.724 5.724 0 0 0 5.725-5.725V134.27h57.162a5.725 5.725 0 0 0 4.18-1.813c9.914-9.471 12.145-16.047 19.891-16.047h70.188c8.224 0 10.297 7.303 18.356 15.786a5.724 5.724 0 0 0 4.409 2.074h245.326v223.599c0 9.933-8.064 18.015-17.976 18.015H157.758a5.724 5.724 0 0 0-5.725 5.725 5.724 5.724 0 0 0 5.725 5.725h318.794c16.226 0 29.425-13.218 29.425-29.464 0-288.569.094-291.066-.152-293.486zm-253.93 58.437c-5.385-5.15-10.528-17.86-25.458-17.86h-70.188c-14.178 0-19.484 11.641-26.554 17.86H75.032V67.39c0-9.921 8.073-17.994 17.994-17.994h383.507c9.184 0 16.697 6.943 17.777 15.841.455 3.757.074-4.699.218 57.585H251.895z" fill="#000000" opacity="1" data-original="#000000" class=""></path><path d="M342.435 68.167c-10.602 0-19.228 8.626-19.228 19.228s8.626 19.228 19.228 19.228 19.228-8.626 19.228-19.228-8.626-19.228-19.228-19.228zm0 27.006c-4.29 0-7.778-3.489-7.778-7.778 0-4.29 3.489-7.778 7.778-7.778 4.29 0 7.778 3.489 7.778 7.778s-3.488 7.778-7.778 7.778zM395.16 66.881c-10.602 0-19.228 8.626-19.228 19.228s8.626 19.226 19.228 19.226 19.228-8.624 19.228-19.226-8.626-19.228-19.228-19.228zm0 27.004c-4.29 0-7.778-3.489-7.778-7.777 0-4.29 3.489-7.778 7.778-7.778 4.29 0 7.778 3.489 7.778 7.778.001 4.289-3.488 7.777-7.778 7.777zM447.885 65.595c-10.602 0-19.228 8.626-19.228 19.228s8.626 19.226 19.228 19.226 19.228-8.624 19.228-19.226-8.626-19.228-19.228-19.228zm0 27.004c-4.29 0-7.778-3.489-7.778-7.777 0-4.29 3.489-7.778 7.778-7.778 4.29 0 7.778 3.489 7.778 7.778.001 4.289-3.488 7.777-7.778 7.777zM33.684 417.677c10.467 10.471 26.704 11.712 38.578 3.653l45.932 45.932c9.078 9.078 23.77 9.079 32.847.002 9.078-9.078 9.08-23.771 0-32.847l-44.945-44.945c27.345-16.657 57.928-30.631 91.042-41.546 6.732 2.386 13.555.491 18.063-4.017 6.759-6.759 6.759-17.758 0-24.519l-29.853-29.853c10.011-11.774 9.498-29.532-1.596-40.671-11.156-11.156-28.875-11.735-40.681-1.606l-29.86-29.86c-6.774-6.774-17.745-6.777-24.519 0-4.897 4.896-6.195 12.003-3.999 18.125-10.571 35.002-25.124 66.587-43.295 93.895l-26.474 26.474c-11.889 11.885-11.893 31.133 0 43.022zm109.259 41.49c-4.446 4.446-12.202 4.45-16.653 0L80.753 413.63l16.654-16.654 45.537 45.539c4.601 4.596 4.607 12.048-.001 16.652zm-42.518-79.699-47.194-47.194c16.41-25.388 29.853-54.178 40.049-85.765l92.985 92.985c-31.033 10.758-59.851 24.177-85.84 39.974zm75.221-122.514c6.637 6.665 7.09 17.131 1.52 24.402l-25.919-25.919c7.601-5.895 17.927-4.955 24.399 1.517zm-78.857-31.458a5.882 5.882 0 0 1 8.323 0h.002l101.99 101.99a5.897 5.897 0 0 1 .002 8.328 5.892 5.892 0 0 1-8.328 0l-101.99-101.99a5.893 5.893 0 0 1 .001-8.328zm-73.77 138.495 22.868-22.867 45.591 45.591-22.868 22.868c-7.398 7.393-19.431 7.396-26.829 0l-18.76-18.76c-7.399-7.399-7.399-19.434-.002-26.832zM213.459 248.192a5.723 5.723 0 0 0 6.908 4.221l32.787-7.911a5.724 5.724 0 0 0 4.221-6.908 5.712 5.712 0 0 0-6.908-4.221l-32.787 7.911a5.724 5.724 0 0 0-4.221 6.908zM218.689 205.815l-20.348 20.35a5.723 5.723 0 0 0 0 8.095 5.723 5.723 0 0 0 8.095 0l20.348-20.35a5.723 5.723 0 0 0 0-8.095 5.723 5.723 0 0 0-8.095 0zM195.007 175.225a5.712 5.712 0 0 0-6.908 4.221l-7.911 32.787a5.724 5.724 0 0 0 4.221 6.908 5.722 5.722 0 0 0 6.908-4.221l7.911-32.787a5.724 5.724 0 0 0-4.221-6.908zM302.462 293.743h141.594c12.907 0 23.406-10.499 23.406-23.406V169.739c0-12.907-10.499-23.406-23.406-23.406H302.462c-12.907 0-23.406 10.499-23.406 23.406v100.598c0 12.906 10.499 23.406 23.406 23.406zm-11.956-124.004c0-6.593 5.363-11.956 11.956-11.956h141.594c6.593 0 11.956 5.363 11.956 11.956v100.598c0 6.593-5.363 11.956-11.956 11.956H302.462c-6.593 0-11.956-5.363-11.956-11.956zM284.781 321.683h169.28c3.162 0 5.725-2.562 5.725-5.725s-2.562-5.725-5.725-5.725h-169.28c-3.162 0-5.725 2.562-5.725 5.725s2.562 5.725 5.725 5.725zM454.061 345.788H342.435a5.724 5.724 0 0 0-5.725 5.725 5.724 5.724 0 0 0 5.725 5.725h111.626c3.162 0 5.725-2.562 5.725-5.725s-2.562-5.725-5.725-5.725z" fill="#000000" opacity="1" data-original="#000000" class=""></path><path d="M309.859 260.616a5.718 5.718 0 0 0 7.449-3.174l9.185-22.825h24.861l7.697 22.538a5.725 5.725 0 1 0 10.835-3.701l-24.088-70.529a5.722 5.722 0 0 0-5.265-3.872c-2.413-.084-4.571 1.366-5.464 3.585l-28.384 70.529a5.725 5.725 0 0 0 3.174 7.449zm30.081-59.415 7.503 21.967H331.1zM382.32 261.03h16.934c22.603 0 40.992-18.389 40.992-40.992s-18.389-40.992-40.992-40.992H382.32a5.724 5.724 0 0 0-5.725 5.725v70.535a5.725 5.725 0 0 0 5.725 5.724zm5.725-70.535h11.209c16.289 0 29.543 13.253 29.543 29.543s-13.254 29.543-29.543 29.543h-11.209z" fill="#000000" opacity="1" data-original="#000000" class=""></path></g></svg>