<svg xmlns="http://www.w3.org/2000/svg" version="1.1" xmlns:xlink="http://www.w3.org/1999/xlink" width="512" height="512" x="0" y="0" viewBox="0 0 64 64" style="enable-background:new 0 0 512 512" xml:space="preserve" class=""><g><path d="M53 28c-.55 0-1 .45-1 1v27c0 2.21-1.79 4-4 4H22c-2.21 0-4-1.79-4-4V45c0-.55-.45-1-1-1s-1 .45-1 1v11c0 3.31 2.69 6 6 6h26c3.31 0 6-2.69 6-6V29c0-.55-.45-1-1-1zM17 10c.55 0 1-.45 1-1V8c0-2.21 1.79-4 4-4h5.32l1.25 3.11A2.985 2.985 0 0 0 31.36 9h7.29c1.23 0 2.33-.74 2.79-1.89L42.69 4h5.32c2.21 0 4 1.79 4 4v5c0 .55.45 1 1 1s1-.45 1-1V8c0-3.31-2.69-6-6-6h-26c-3.31 0-6 2.69-6 6v1c0 .55.45 1 1 1zm23.52-6-.95 2.37a1 1 0 0 1-.93.63h-7.29a1 1 0 0 1-.93-.63L29.47 4zM17 28c2.76 0 5-2.24 5-5s-2.24-5-5-5-5 2.24-5 5 2.24 5 5 5zm0-8c1.65 0 3 1.35 3 3s-1.35 3-3 3-3-1.35-3-3 1.35-3 3-3z" fill="#000000" opacity="1" data-original="#000000" class=""></path><path d="M6.61 37.8C9.31 40.4 12.96 42 17 42s7.69-1.61 10.39-4.2c.04-.03.08-.07.12-.11 2.77-2.72 4.5-6.51 4.5-10.69 0-8.27-6.73-15-15-15S2 18.73 2 27c0 4.18 1.73 7.97 4.5 10.69.04.04.07.07.12.11zm1.73-1.13.33-1.11a4.971 4.971 0 0 1 4.78-3.57h7.08c2.22 0 4.14 1.43 4.78 3.57l.33 1.1c-2.3 2.06-5.33 3.33-8.66 3.33s-6.35-1.27-8.66-3.33zM17 14c7.17 0 13 5.83 13 13 0 3.01-1.04 5.78-2.76 7.99-.9-2.98-3.58-4.99-6.7-4.99h-7.08c-3.11 0-5.8 2.01-6.7 4.99A12.891 12.891 0 0 1 4 27c0-7.17 5.83-13 13-13zM44 44H26c-.55 0-1 .45-1 1s.45 1 1 1h18c.55 0 1-.45 1-1s-.45-1-1-1zM26 51h9c.55 0 1-.45 1-1s-.45-1-1-1h-9c-.55 0-1 .45-1 1s.45 1 1 1zM26 56h18c.55 0 1-.45 1-1s-.45-1-1-1H26c-.55 0-1 .45-1 1s.45 1 1 1zM57 16H43c-2.76 0-5 2.24-5 5s2.24 5 5 5h14c2.76 0 5-2.24 5-5s-2.24-5-5-5zm0 8H43c-1.65 0-3-1.35-3-3s1.35-3 3-3h14c1.65 0 3 1.35 3 3s-1.35 3-3 3z" fill="#000000" opacity="1" data-original="#000000" class=""></path></g></svg>