<?xml version="1.0" standalone="no"?>
<!DOCTYPE svg PUBLIC "-//W3C//DTD SVG 20010904//EN"
 "http://www.w3.org/TR/2001/REC-SVG-20010904/DTD/svg10.dtd">
<svg version="1.0" xmlns="http://www.w3.org/2000/svg"
 width="677.000000pt" height="677.000000pt" viewBox="0 0 677.000000 677.000000"
 preserveAspectRatio="xMidYMid meet">
<metadata>
Created by potrace 1.14, written by Peter Selinger 2001-2017
</metadata>
<g transform="translate(0.000000,677.000000) scale(0.100000,-0.100000)"
fill="#000000" stroke="none">
<path d="M0 3387 l0 -3382 3380 0 3380 0 0 2632 0 2633 -530 0 -530 0 0 215 0
215 -152 0 c-84 0 -1127 1 -2318 3 l-2165 2 2058 2 2057 3 0 530 0 530 -2590
0 -2590 0 0 -3383z"/>
<path d="M6061 6733 c-121 -43 -193 -98 -266 -203 -109 -156 -123 -374 -33
-543 195 -366 709 -378 923 -22 150 251 59 585 -199 730 -123 68 -297 84 -425
38z"/>
</g>
</svg>
